<svg width="24" height="24" viewBox="0 0 24 24" fill="none" xmlns="http://www.w3.org/2000/svg">
<rect width="24" height="24" rx="5" fill="#8D47FF"/>
<path d="M16.2826 7.27367L16.2738 7.28209L16.2658 7.29133L16.2373 7.32433L16.2371 7.32415L16.2298 7.33338L11.1944 13.7491L8.25571 10.8119C8.13045 10.6784 7.97979 10.5712 7.81255 10.4967C7.64388 10.4216 7.46181 10.3811 7.27719 10.3779C7.09256 10.3746 6.90918 10.4086 6.73797 10.4777C6.56675 10.5469 6.41123 10.6498 6.28066 10.7804C6.15009 10.911 6.04716 11.0665 5.978 11.2377C5.90885 11.4089 5.87489 11.5923 5.87814 11.7769C5.8814 11.9616 5.92181 12.1436 5.99696 12.3123C6.07149 12.4795 6.17866 12.6302 6.31217 12.7555L10.2782 16.7215C10.2782 16.7215 10.2782 16.7215 10.2782 16.7215C10.4089 16.8522 10.5647 16.9553 10.7361 17.0244L10.8296 16.7926L10.7361 17.0244C10.9075 17.0936 11.0912 17.1275 11.276 17.1241C11.4608 17.1206 11.6431 17.08 11.8118 17.0045C11.9806 16.929 12.1324 16.8203 12.2582 16.6848L12.2645 16.6781L12.2702 16.6709L18.2502 9.19212C18.4874 8.93009 18.6146 8.58669 18.6052 8.23319C18.5958 7.87673 18.4483 7.53788 18.1938 7.28813C17.9393 7.03838 17.5977 6.89727 17.2411 6.89457C16.8845 6.89187 16.5409 7.0278 16.2826 7.27367Z" fill="white" stroke="white" stroke-width="0.5"/>
</svg>
