<svg width="301" height="344" viewBox="0 0 301 344" fill="none" xmlns="http://www.w3.org/2000/svg">
<rect width="301" height="344" rx="15" fill="#C2E5FF"/>
<g opacity="0.4">
<path d="M230 244.292C230 288.264 194.407 311.318 150.5 311.318C106.593 311.318 71 288.264 71 244.292C71 200.32 106.593 164.674 150.5 164.674C194.407 164.674 230 200.32 230 244.292Z" fill="#ECEEF3"/>
<path d="M217.427 130.676C217.427 167.747 187.419 189.857 150.403 189.857C113.387 189.857 83.3795 167.747 83.3795 130.676C83.3795 93.6047 113.387 63.5527 150.403 63.5527C187.419 63.5527 217.427 93.6047 217.427 130.676Z" fill="#ECEEF3"/>
<path d="M129.416 130.771C132.621 130.771 135.219 128.17 135.219 124.96C135.219 121.75 132.621 119.148 129.416 119.148C126.211 119.148 123.613 121.75 123.613 124.96C123.613 128.17 126.211 130.771 129.416 130.771Z" fill="#838080"/>
<path d="M171.391 130.771C174.595 130.771 177.193 128.17 177.193 124.96C177.193 121.75 174.595 119.148 171.391 119.148C168.186 119.148 165.588 121.75 165.588 124.96C165.588 128.17 168.186 130.771 171.391 130.771Z" fill="#838080"/>
<path d="M213.558 81.7617H87.2482C81.9068 81.7617 77.5767 86.0982 77.5767 91.4476V92.6099C77.5767 97.9593 81.9068 102.296 87.2482 102.296H213.558C218.9 102.296 223.23 97.9593 223.23 92.6099V91.4476C223.23 86.0982 218.9 81.7617 213.558 81.7617Z" fill="#838080"/>
<path d="M94.3564 78.4141C95.4834 65.0805 96.0468 58.4135 98.6464 53.0609C101.715 46.742 106.777 41.6119 113.05 38.464C118.363 35.7975 125.013 35.1541 138.313 33.8675L138.954 33.8055C142.998 33.4142 145.02 33.2186 147.045 33.1154C150.248 32.9522 153.458 32.9621 156.659 33.1452C158.684 33.2609 160.705 33.4691 164.746 33.8855C176.021 35.0468 181.658 35.6275 186.276 37.6722C193.605 40.9176 199.447 46.8056 202.641 54.1662C204.654 58.8038 205.198 64.453 206.286 75.7512L207.369 86.9921H93.6315L94.3564 78.4141Z" fill="#838080"/>
<path d="M162.109 135.834C164.868 136.661 164.868 140.573 162.109 141.401L147.996 145.634C146.134 146.192 144.262 144.796 144.262 142.85V134.384C144.262 132.438 146.134 131.042 147.996 131.601L162.109 135.834Z" fill="#FF842A"/>
<path d="M150.403 225.887C153.662 225.887 156.303 223.242 156.303 219.979C156.303 216.716 153.662 214.07 150.403 214.07C147.145 214.07 144.504 216.716 144.504 219.979C144.504 223.242 147.145 225.887 150.403 225.887Z" fill="#DE3B3B"/>
<path d="M148.566 218.139L152.434 222.013" stroke="#E76464" stroke-width="7" stroke-linecap="round"/>
<path d="M148.566 222.013L152.434 218.139" stroke="#E76464" stroke-width="7" stroke-linecap="round"/>
<path d="M150.403 244.289C153.662 244.289 156.303 241.644 156.303 238.381C156.303 235.118 153.662 232.473 150.403 232.473C147.145 232.473 144.504 235.118 144.504 238.381C144.504 241.644 147.145 244.289 150.403 244.289Z" fill="#DE3B3B"/>
<path d="M148.566 236.541L152.434 240.415" stroke="#E76464" stroke-width="7" stroke-linecap="round"/>
<path d="M148.566 240.415L152.434 236.541" stroke="#E76464" stroke-width="7" stroke-linecap="round"/>
<mask id="mask0_1038_379" style="mask-type:alpha" maskUnits="userSpaceOnUse" x="177" y="182" width="32" height="76">
<path d="M202.92 182.496H182.996C179.792 182.496 177.193 185.098 177.193 188.308V251.653C177.193 254.863 179.792 257.465 182.996 257.465H202.92C206.125 257.465 208.723 254.863 208.723 251.653V188.308C208.723 185.098 206.125 182.496 202.92 182.496Z" fill="#FFCF53"/>
</mask>
<g mask="url(#mask0_1038_379)">
<path d="M202.92 182.498H182.996C179.792 182.498 177.193 185.1 177.193 188.31V251.655C177.193 254.865 179.792 257.467 182.996 257.467H202.92C206.125 257.467 208.723 254.865 208.723 251.655V188.31C208.723 185.1 206.125 182.498 202.92 182.498Z" fill="#FFCF53"/>
<path d="M177.519 238.065L177.193 244.258L222.635 245.905L222.96 239.712L177.519 238.065Z" fill="#FFE9B0"/>
<path d="M177.519 217.826L177.193 224.02L222.635 225.667L222.96 219.474L177.519 217.826Z" fill="#FFE9B0"/>
<path d="M177.519 197.588L177.193 203.781L222.635 205.429L222.96 199.236L177.519 197.588Z" fill="#FFE9B0"/>
<path d="M177.519 177.35L177.193 183.543L222.635 185.191L222.96 178.998L177.519 177.35Z" fill="#FFE9B0"/>
</g>
<path d="M178.741 253.201V263.081" stroke="#FFCF53" stroke-width="16" stroke-linecap="round"/>
<path d="M182.803 253.201V263.081" stroke="#FFCF53" stroke-width="16" stroke-linecap="round"/>
<path d="M186.865 253.201V263.081" stroke="#FFCF53" stroke-width="16" stroke-linecap="round"/>
<path d="M190.927 253.201V263.081" stroke="#FFCF53" stroke-width="16" stroke-linecap="round"/>
<path d="M194.989 253.201V263.081" stroke="#FFCF53" stroke-width="16" stroke-linecap="round"/>
<path d="M199.051 253.201V263.081" stroke="#FFCF53" stroke-width="16" stroke-linecap="round"/>
<path d="M203.113 253.201V263.081" stroke="#FFCF53" stroke-width="16" stroke-linecap="round"/>
<path d="M207.175 253.201V263.081" stroke="#FFCF53" stroke-width="16" stroke-linecap="round"/>
<mask id="mask1_1038_379" style="mask-type:alpha" maskUnits="userSpaceOnUse" x="90" y="165" width="121" height="37">
<path d="M90.5366 171.562C90.5366 168.027 93.6623 165.31 97.1572 165.809L147.657 173.007C148.181 173.082 148.714 173.084 149.239 173.014L203.896 165.739C207.374 165.276 210.464 167.986 210.464 171.5V189.914C210.464 192.896 208.21 195.394 205.248 195.696L149.055 201.416C148.651 201.457 148.244 201.455 147.84 201.411L95.7117 195.729C92.7673 195.408 90.5366 192.918 90.5366 189.952V171.562Z" fill="#FFCF53"/>
</mask>
<g mask="url(#mask1_1038_379)">
<path d="M90.5366 171.564C90.5366 168.029 93.6623 165.312 97.1572 165.811L147.657 173.009C148.181 173.084 148.714 173.086 149.239 173.016L203.896 165.741C207.374 165.278 210.464 167.988 210.464 171.502V189.916C210.464 192.898 208.21 195.396 205.248 195.698L149.055 201.418C148.651 201.459 148.244 201.457 147.84 201.413L95.7117 195.731C92.7673 195.41 90.5366 192.92 90.5366 189.954V171.564Z" fill="#FFCF53"/>
<path d="M102.962 161.394L96.7782 161.068L95.133 206.577L101.317 206.903L102.962 161.394Z" fill="#FFE9B0"/>
<path d="M123.171 161.394L116.987 161.068L115.342 206.577L121.526 206.903L123.171 161.394Z" fill="#FFE9B0"/>
<path d="M143.379 161.394L137.196 161.068L135.55 206.577L141.734 206.903L143.379 161.394Z" fill="#FFE9B0"/>
<path d="M163.588 161.394L157.404 161.068L155.759 206.577L161.943 206.903L163.588 161.394Z" fill="#FFE9B0"/>
<path d="M183.797 161.394L177.613 161.068L175.968 206.577L182.152 206.903L183.797 161.394Z" fill="#FFE9B0"/>
<path d="M204.006 161.394L197.822 161.068L196.176 206.577L202.36 206.903L204.006 161.394Z" fill="#FFE9B0"/>
</g>
</g>
</svg>
