<svg width="301" height="344" viewBox="0 0 301 344" fill="none" xmlns="http://www.w3.org/2000/svg">
<rect width="301" height="344" rx="15" fill="#D9C2FF"/>
<path d="M169.026 82.0474C181.727 87.7687 192.917 96.3755 201.706 107.183C210.495 117.99 216.64 130.7 219.653 144.301C222.665 157.901 222.461 172.017 219.058 185.525C215.654 199.033 209.144 211.56 200.047 222.109C190.95 232.658 179.516 240.938 166.655 246.291C153.794 251.643 139.862 253.92 125.966 252.94C112.071 251.959 98.5958 247.749 86.6138 240.645C74.6317 233.54 64.4733 223.737 56.947 212.015L67 213.479L72.8574 214.424C78.1929 215.284 83.5887 215.717 88.9931 215.717L92.1254 215.717C97.4373 215.717 102.733 215.135 107.919 213.983C113.44 212.756 118.799 210.89 123.888 208.423L125.207 207.783C129.061 205.914 132.77 203.758 136.3 201.333L144.215 195.895C147.841 193.404 151.176 190.515 154.16 187.282C157.206 183.981 159.864 180.343 162.084 176.438L167.651 166.646C172.131 156.154 175.066 145.068 176.364 133.733L176.644 131.291L177.182 122.788L176.645 114.575C175.156 103.561 172.575 92.5795 169.026 82.0474Z" fill="#FFCF53" fill-opacity="0.52"/>
</svg>
